<?xml version="1.0" standalone="no"?>
<!DOCTYPE svg PUBLIC "-//W3C//DTD SVG 20010904//EN"
 "http://www.w3.org/TR/2001/REC-SVG-20010904/DTD/svg10.dtd">
<svg version="1.0" xmlns="http://www.w3.org/2000/svg"
 width="1236.000000pt" height="900.000000pt" viewBox="0 0 1236.000000 900.000000"
 preserveAspectRatio="xMidYMid meet">

<g transform="translate(0.000000,900.000000) scale(0.100000,-0.100000)"
fill="#000000" stroke="none">
<path d="M5628 6998 c-21 -37 -17 -288 5 -362 19 -59 58 -111 80 -103 6 2 115
112 240 245 l229 242 -271 0 c-270 0 -270 0 -283 -22z"/>
<path d="M6023 6627 c-183 -215 -343 -408 -356 -427 -48 -72 -57 -112 -57
-255 l0 -135 210 0 209 0 332 366 c182 202 347 392 367 422 52 83 62 126 62
284 l0 138 -217 0 -218 0 -332 -393z"/>
<path d="M6472 6072 c-128 -138 -232 -253 -232 -257 0 -3 119 -5 265 -5 l265
0 7 28 c13 45 9 332 -5 380 -7 23 -25 57 -40 73 l-28 31 -232 -250z"/>
<path d="M1980 5080 l0 -280 259 0 258 0 247 272 c135 150 246 276 246 280 0
4 -227 8 -505 8 l-505 0 0 -280z"/>
<path d="M3664 5318 c-130 -137 -636 -731 -1596 -1873 l-117 -140 -3 -218 c-2
-128 1 -222 7 -228 5 -5 95 -9 206 -9 l197 0 229 252 c299 330 254 278 763
882 245 291 522 620 615 730 l170 201 0 220 0 220 -215 3 -215 2 -41 -42z"/>
<path d="M5007 5353 c-10 -9 -9 -1043 1 -1043 8 0 623 664 675 728 26 34 27
38 27 163 0 70 -3 134 -6 143 -5 14 -46 16 -348 16 -189 0 -346 -3 -349 -7z"/>
<path d="M6310 4968 c-201 -215 -401 -430 -446 -477 -44 -47 -257 -276 -472
-509 l-392 -424 0 -348 c0 -308 2 -349 16 -354 9 -3 163 -6 344 -6 267 0 330
3 339 14 8 10 11 102 11 317 l-1 304 126 137 c70 75 132 135 138 132 7 -3 171
-207 365 -455 l354 -449 398 0 c222 0 401 4 404 9 5 8 -68 106 -444 591 -465
601 -610 791 -610 800 0 9 172 198 902 989 54 59 98 109 98 114 0 4 -172 7
-383 7 l-382 0 -365 -392z"/>
<path d="M8200 5086 l0 -276 563 0 c597 0 679 -5 779 -49 114 -49 188 -163
196 -302 10 -175 -72 -306 -226 -360 l-67 -24 -623 -3 -622 -3 2 -607 3 -607
345 0 345 0 5 325 5 325 320 6 c176 4 349 12 385 18 432 72 726 313 816 669
20 77 24 120 24 232 0 171 -27 289 -97 430 -40 82 -61 109 -148 195 -147 147
-290 219 -543 277 -94 21 -120 22 -779 25 l-683 4 0 -275z"/>
<path d="M3457 3293 c-299 -339 -375 -429 -368 -436 4 -4 252 -6 552 -5 l544
3 3 278 2 277 -314 0 -315 0 -104 -117z"/>
<path d="M3163 2185 l-251 -415 58 0 59 0 58 98 59 97 225 3 224 2 26 -97 25
-98 63 -3 c49 -2 62 0 58 10 -2 7 -53 187 -111 398 -59 212 -110 393 -112 403
-4 14 -17 17 -67 17 l-62 -1 -252 -414z m346 104 c28 -103 51 -194 51 -203 0
-14 -19 -16 -170 -16 -115 0 -170 3 -170 11 0 11 231 401 236 397 1 -2 25 -87
53 -189z"/>
<path d="M7875 2401 c-54 -9 -125 -46 -152 -79 -25 -30 -28 -21 -14 41 l9 37
-57 0 -57 0 -58 -302 c-33 -167 -61 -309 -63 -315 -4 -10 10 -13 51 -13 49 0
56 2 61 23 3 12 20 97 39 190 39 192 61 238 133 286 82 55 205 43 249 -24 23
-36 19 -99 -21 -294 -19 -96 -35 -176 -35 -178 0 -2 24 -3 54 -3 l55 0 11 58
c70 341 84 381 142 425 55 41 78 49 137 50 97 1 151 -46 151 -131 0 -21 -16
-117 -35 -212 -19 -95 -35 -177 -35 -182 0 -4 25 -8 55 -8 30 0 55 3 55 8 0 4
18 95 41 202 47 224 47 278 3 341 -38 55 -100 82 -188 82 -43 0 -86 -7 -109
-16 -50 -22 -109 -69 -127 -101 -17 -32 -26 -33 -34 -2 -21 82 -142 137 -261
117z"/>
<path d="M3995 2378 c3 -13 25 -142 50 -288 25 -146 48 -277 51 -292 5 -27 8
-28 62 -28 l57 0 133 240 c74 132 137 240 141 240 4 0 22 -108 41 -240 l35
-241 59 3 60 3 177 313 177 312 -57 0 -58 0 -139 -259 c-76 -143 -140 -259
-141 -257 -2 1 -17 108 -33 237 -41 311 -29 279 -98 279 l-57 -1 -140 -262
c-105 -196 -141 -256 -143 -237 -2 14 -18 131 -35 260 l-32 235 -58 3 c-56 3
-57 2 -52 -20z"/>
<path d="M5353 2386 c-92 -30 -167 -99 -211 -195 -39 -82 -38 -193 1 -273 51
-104 141 -153 278 -152 82 1 160 23 206 60 l27 22 -24 35 -24 35 -27 -19 c-15
-10 -55 -26 -89 -35 -120 -31 -213 9 -255 108 -29 72 -43 68 239 68 l254 0 6
23 c10 38 7 112 -8 161 -19 62 -56 109 -113 143 -39 23 -60 27 -132 30 -53 2
-102 -2 -128 -11z m214 -102 c43 -33 65 -69 70 -118 l6 -46 -207 0 -207 0 6
23 c20 63 68 115 135 147 58 27 156 24 197 -6z"/>
<path d="M6100 2385 c-73 -33 -110 -87 -110 -162 0 -83 45 -129 174 -179 59
-23 116 -73 116 -103 0 -34 -50 -78 -98 -86 -65 -11 -167 24 -228 78 -21 18
-22 18 -43 -11 -30 -43 -27 -57 24 -92 79 -55 207 -78 306 -57 53 11 126 79
140 130 27 100 -7 150 -147 218 -100 49 -144 85 -144 116 0 8 13 28 29 44 42
42 120 41 211 -2 l65 -30 22 28 c13 15 22 35 21 43 -2 8 -29 28 -62 44 -50 26
-71 31 -149 33 -68 3 -101 -1 -127 -12z"/>
<path d="M6863 2386 c-60 -19 -137 -71 -168 -112 -53 -69 -69 -122 -69 -219 1
-129 36 -196 133 -253 43 -25 54 -27 156 -27 100 0 115 2 167 28 65 32 131
100 161 167 24 54 34 169 18 227 -18 67 -70 133 -130 167 -47 26 -67 30 -140
33 -54 2 -102 -2 -128 -11z m162 -87 c146 -41 180 -252 60 -373 -54 -54 -98
-70 -175 -64 -72 5 -129 40 -156 95 -26 51 -26 164 0 213 56 108 163 159 271
129z"/>
<path d="M9103 2386 c-92 -30 -167 -99 -211 -195 -39 -83 -38 -194 1 -273 51
-105 141 -154 277 -152 79 2 156 23 203 56 33 23 33 26 4 61 l-22 28 -60 -27
c-77 -36 -172 -39 -224 -9 -47 28 -88 83 -96 128 l-7 37 255 0 255 0 6 23 c10
38 7 112 -8 161 -19 62 -56 109 -113 143 -39 23 -60 27 -132 30 -53 2 -102 -2
-128 -11z m214 -102 c42 -32 62 -65 69 -116 l7 -48 -207 0 -207 0 6 23 c20 63
68 115 135 147 58 27 156 24 197 -6z"/>
</g>
</svg>
