<svg width="269" height="269" viewBox="0 0 269 269" fill="none" xmlns="http://www.w3.org/2000/svg">
<path d="M59.3788 57.9073C56.6035 62.797 57.1322 95.9674 60.0396 105.747C62.5504 113.543 67.7044 120.416 70.6118 119.359C71.4047 119.094 85.8097 104.558 102.328 86.9807L132.592 55H96.7777C61.0967 55 61.0968 55 59.3788 57.9073Z" fill="white"/>
<path d="M111.58 106.936C87.3955 135.349 66.2507 160.855 64.5327 163.365C58.1894 172.88 57 178.166 57 197.064V214.905H84.7521H112.372L156.247 166.537C180.299 139.843 202.104 114.733 204.747 110.768C211.619 99.8002 212.94 94.1169 212.94 73.2371V55H184.263H155.454L111.58 106.936Z" fill="white"/>
<path d="M170.916 180.281C154.001 198.518 140.256 213.715 140.256 214.244C140.256 214.64 155.983 214.905 175.277 214.905H210.298L211.223 211.205C212.94 205.258 212.412 167.33 210.562 160.986C209.637 157.947 207.258 153.454 205.276 151.34L201.576 147.242L170.916 180.281Z" fill="white"/>
</svg>
